<?xml version="1.0" encoding="utf-8"?>
<!-- Generator: Adobe Illustrator 23.0.1, SVG Export Plug-In . SVG Version: 6.00 Build 0)  -->
<svg version="1.1" id="Artwork" xmlns="http://www.w3.org/2000/svg" xmlns:xlink="http://www.w3.org/1999/xlink" x="0px" y="0px"
	 viewBox="0 0 165.5 106" style="enable-background:new 0 0 165.5 106;" xml:space="preserve">
<style type="text/css">
	.st0{fill:#8C8D8E;}
</style>
<g>
	<path class="st0" d="M165.5,13.1c0-0.5,0-1,0-1.4c0-1-0.1-2.1-0.3-3.1c-0.2-1-0.5-2-1-3c-0.5-0.9-1.1-1.8-1.8-2.5
		c-0.7-0.7-1.6-1.4-2.5-1.8c-0.9-0.5-1.9-0.8-3-1c-1-0.2-2.1-0.2-3.1-0.3c-0.5,0-1,0-1.4,0c-0.6,0-1.1,0-1.7,0H14.8
		c-0.6,0-1.1,0-1.7,0c-0.5,0-1,0-1.4,0c-1,0-2.1,0.1-3.1,0.3c-1,0.2-2,0.5-3,1C4.7,1.7,3.8,2.4,3.1,3.1C2.4,3.8,1.7,4.7,1.3,5.6
		c-0.5,0.9-0.8,1.9-1,3c-0.2,1-0.2,2.1-0.3,3.1c0,0.5,0,1,0,1.4c0,0.6,0,1.1,0,1.7v76.3c0,0.6,0,1.1,0,1.7c0,0.5,0,1,0,1.4
		c0,1,0.1,2.1,0.3,3.1c0.2,1,0.5,2,1,3c0.5,0.9,1.1,1.8,1.8,2.5c0.7,0.7,1.6,1.4,2.5,1.8c0.9,0.5,1.9,0.8,3,1c1,0.2,2.1,0.2,3.1,0.3
		c0.5,0,1,0,1.4,0c0.6,0,1.1,0,1.7,0h135.9c0.6,0,1.1,0,1.7,0c0.5,0,1,0,1.4,0c1,0,2.1-0.1,3.1-0.3c1-0.2,2-0.5,3-1
		c0.9-0.5,1.8-1.1,2.5-1.8c0.7-0.7,1.4-1.6,1.8-2.5c0.5-0.9,0.8-1.9,1-3c0.2-1,0.2-2.1,0.3-3.1c0-0.5,0-1,0-1.4c0-0.6,0-1.1,0-1.7
		V14.8C165.5,14.3,165.5,13.7,165.5,13.1z M162,91.1c0,0.6,0,1.1,0,1.7c0,0.4,0,0.9,0,1.4c0,0.8-0.1,1.7-0.2,2.6
		c-0.1,0.7-0.3,1.4-0.6,2c-0.3,0.6-0.7,1.1-1.2,1.6c-0.5,0.5-1,0.9-1.6,1.2c-0.6,0.3-1.2,0.5-2,0.6c-0.9,0.2-1.8,0.2-2.6,0.2
		c-0.5,0-0.9,0-1.4,0c-0.6,0-1.1,0-1.7,0H14.8c0,0,0,0,0,0c-0.5,0-1.1,0-1.7,0c-0.5,0-0.9,0-1.4,0c-0.7,0-1.7-0.1-2.6-0.2
		c-0.7-0.1-1.4-0.3-2-0.7c-0.6-0.3-1.1-0.7-1.6-1.2c-0.5-0.5-0.9-1-1.2-1.6c-0.3-0.6-0.5-1.2-0.6-2c-0.2-0.9-0.2-1.8-0.2-2.6
		c0-0.5,0-0.9,0-1.4l0-1.3l0-0.4V14.8l0-0.4l0-1.3c0-0.5,0-0.9,0-1.4c0-0.8,0.1-1.7,0.2-2.6c0.1-0.7,0.3-1.4,0.6-2
		c0.3-0.6,0.7-1.1,1.2-1.6c0.5-0.5,1-0.9,1.6-1.2c0.6-0.3,1.2-0.5,2-0.6c0.9-0.2,1.8-0.2,2.6-0.2c0.5,0,0.9,0,1.4,0l1.7,0h135.9
		l1.7,0c0.5,0,0.9,0,1.4,0c0.8,0,1.7,0.1,2.6,0.2c0.8,0.1,1.4,0.3,2,0.6c0.6,0.3,1.1,0.7,1.6,1.2c0.5,0.5,0.9,1,1.2,1.6
		c0.3,0.6,0.5,1.2,0.6,2c0.2,0.9,0.2,1.8,0.2,2.6c0,0.4,0,0.9,0,1.4c0,0.6,0,1.1,0,1.7V91.1z"/>
	<g>
		<g>
			<path class="st0" d="M45.2,35.6c1.4-1.8,2.4-4.2,2.1-6.6c-2.1,0.1-4.6,1.4-6.1,3.1c-1.3,1.5-2.5,4-2.2,6.3
				C41.4,38.7,43.7,37.4,45.2,35.6"/>
			<path class="st0" d="M47.3,39c-3.4-0.2-6.3,1.9-7.9,1.9c-1.6,0-4.1-1.8-6.8-1.8c-3.5,0.1-6.7,2-8.5,5.2c-3.6,6.3-1,15.6,2.6,20.7
				c1.7,2.5,3.8,5.3,6.5,5.2c2.6-0.1,3.6-1.7,6.7-1.7c3.1,0,4,1.7,6.8,1.6c2.8-0.1,4.6-2.5,6.3-5.1c2-2.9,2.8-5.7,2.8-5.8
				c-0.1-0.1-5.5-2.1-5.5-8.3c-0.1-5.2,4.2-7.7,4.4-7.8C52.4,39.5,48.6,39.1,47.3,39"/>
		</g>
		<g>
			<path class="st0" d="M76.7,31.9c7.4,0,12.5,5.1,12.5,12.4c0,7.4-5.2,12.5-12.7,12.5h-8.1v12.9h-5.9V31.9L76.7,31.9L76.7,31.9z
				 M68.4,51.9h6.7c5.1,0,8-2.8,8-7.5c0-4.8-2.9-7.5-8-7.5h-6.8V51.9z"/>
			<path class="st0" d="M90.7,62c0-4.8,3.7-7.8,10.3-8.2l7.6-0.4v-2.1c0-3.1-2.1-4.9-5.5-4.9c-3.3,0-5.3,1.6-5.8,4h-5.4
				c0.3-5,4.6-8.7,11.4-8.7c6.7,0,11,3.5,11,9.1v19h-5.4v-4.5h-0.1c-1.6,3.1-5.1,5-8.7,5C94.5,70.3,90.7,66.9,90.7,62z M108.6,59.5
				v-2.2l-6.8,0.4c-3.4,0.2-5.3,1.7-5.3,4.1c0,2.4,2,4,5,4C105.5,65.8,108.6,63.1,108.6,59.5z"/>
			<path class="st0" d="M119.3,80v-4.6c0.4,0.1,1.4,0.1,1.8,0.1c2.6,0,4-1.1,4.9-3.9c0-0.1,0.5-1.7,0.5-1.7l-10-27.6h6.1l7,22.5h0.1
				l7-22.5h6l-10.3,29.1c-2.4,6.7-5.1,8.8-10.8,8.8C121.2,80.1,119.8,80.1,119.3,80z"/>
		</g>
	</g>
</g>
</svg>
