<?xml version="1.0" encoding="utf-8"?>
<!-- Generator: Adobe Illustrator 23.0.1, SVG Export Plug-In . SVG Version: 6.00 Build 0)  -->
<svg version="1.1" id="Capa_1" xmlns="http://www.w3.org/2000/svg" xmlns:xlink="http://www.w3.org/1999/xlink" x="0px" y="0px"
	 viewBox="0 0 56.5 56.5" style="enable-background:new 0 0 56.5 56.5;" xml:space="preserve">
<style type="text/css">
	.st0{fill:#8C8D8E;}
</style>
<g>
	<g>
		<path class="st0" d="M15.1,25.8c-1.1,0-1.9,0.3-1.9,0.3L13,27.5c0,0,0.7-0.3,1.7-0.3c0.6,0,1,0.1,1,0.5c0,0.3-0.1,0.4-0.1,0.4
			s-0.5,0-0.7,0c-1.3,0-2.7,0.6-2.7,2.3c0,1.4,0.9,1.7,1.5,1.7c1.1,0,1.6-0.7,1.6-0.7l-0.1,0.6h1.4l0.6-4.2
			C17.2,25.9,15.6,25.8,15.1,25.8z M14.3,30.7c-0.5,0-0.6-0.4-0.6-0.6c0-0.4,0.2-0.9,1.4-0.9c0.3,0,0.3,0,0.3,0
			C15.4,29.5,15.2,30.7,14.3,30.7z"/>
	</g>
</g>
<g>
	<g>
		<path class="st0" d="M20,27.2c0.2,0,1.1,0.1,1.1,0.1l0.2-1.4c0,0-0.5-0.1-1.4-0.1c-1.1,0-2.3,0.5-2.3,2c0,1.8,1.9,1.6,1.9,2.3
			c0,0.5-0.5,0.5-1,0.5c-0.7,0-1.4-0.2-1.4-0.2l-0.2,1.4c0,0,0.4,0.2,1.7,0.2c0.3,0,2.3,0.1,2.3-2c0-1.9-1.8-1.5-1.8-2.3
			C19.1,27.4,19.4,27.2,20,27.2z"/>
	</g>
</g>
<g>
	<g>
		<path class="st0" d="M23.2,27.4H24l0.2-1.5h-0.8l0.2-0.9h-1.5c0,0-0.9,5.1-0.9,5.7c0,0.9,0.5,1.3,1.2,1.3c0.6,0,1-0.2,1.2-0.2
			l0.2-1.3c-0.1,0-0.3,0-0.4,0c-0.5,0-0.6-0.3-0.6-0.5L23.2,27.4z"/>
	</g>
</g>
<g>
	<g>
		<path class="st0" d="M29.7,19h-2.8c-0.4,0.5-0.7,1-1,1.6h4.9C30.5,20,30.1,19.5,29.7,19z"/>
	</g>
</g>
<g>
	<g>
		<path class="st0" d="M51.2,36.4C51.1,36.4,51.1,36.4,51.2,36.4c-0.1-0.1-0.1-0.1-0.1-0.1c0,0,0.1,0,0.1,0c0,0,0-0.1,0-0.1
			c0,0,0-0.1,0-0.1c0,0,0,0-0.1,0c0,0-0.1,0-0.1,0h-0.2v0.5h0.1v-0.2h0c0,0,0.1,0,0.1,0C51,36.4,51,36.4,51.2,36.4l0,0.1h0.1
			L51.2,36.4z M51,36.3L51,36.3l-0.1-0.2H51c0,0,0.1,0,0.1,0c0,0,0,0,0,0c0,0,0,0,0,0C51.1,36.2,51.1,36.2,51,36.3
			C51.1,36.3,51,36.3,51,36.3z"/>
	</g>
</g>
<g>
	<g>
		<path class="st0" d="M31.6,22.1H25c-0.4,0.8-0.7,1.4-0.8,1.6h8C32.1,23.1,31.9,22.6,31.6,22.1z"/>
	</g>
</g>
<g>
	<g>
		<polygon class="st0" points="10.3,24.6 8.8,29.1 8.7,24.6 6.4,24.6 5.2,31.9 6.7,31.9 7.6,26.4 7.8,31.9 8.8,31.9 10.8,26.4 
			9.9,31.9 11.5,31.9 12.7,24.6 		"/>
	</g>
</g>
<g>
	<g>
		<path class="st0" d="M40.1,25.8c-1.1,0-1.9,0.3-1.9,0.3L38,27.5c0,0,0.7-0.3,1.7-0.3c0.6,0,1,0.1,1,0.5c0,0.3-0.1,0.4-0.1,0.4
			s-0.5,0-0.7,0c-1.3,0-2.7,0.6-2.7,2.3c0,1.4,0.9,1.7,1.5,1.7c1.1,0,1.6-0.7,1.6-0.7l-0.1,0.6h1.4l0.6-4.2
			C42.2,25.9,40.6,25.8,40.1,25.8z M39.3,30.7c-0.5,0-0.6-0.4-0.6-0.6c0-0.4,0.2-0.9,1.4-0.9c0.3,0,0.3,0,0.3,0
			C40.4,29.5,40.2,30.7,39.3,30.7z"/>
	</g>
</g>
<g>
	<g>
		<path class="st0" d="M51.2,31.3c0-0.1-0.1-0.1-0.2-0.2C51,31,50.9,31,50.8,31c-0.1,0-0.2,0-0.2,0.1c-0.1,0-0.1,0.1-0.2,0.2
			c0,0.1-0.1,0.2-0.1,0.2s0,0.2,0.1,0.2c0,0.1,0.1,0.1,0.2,0.2c0.1,0,0.2,0.1,0.2,0.1c0.1,0,0.2,0,0.2-0.1c0.1,0,0.1-0.1,0.2-0.2
			c0-0.1,0.1-0.2,0.1-0.2C51.3,31.4,51.3,31.3,51.2,31.3z M51.1,31.7c0,0.1-0.1,0.1-0.1,0.1c-0.1,0-0.1,0.1-0.2,0.1
			c-0.1,0-0.1,0-0.2-0.1c-0.1,0-0.1-0.1-0.1-0.1s-0.1-0.1-0.1-0.2s0-0.1,0.1-0.2c0-0.1,0.1-0.1,0.1-0.1s0.1,0,0.2,0s0.1,0,0.2,0
			c0.1,0,0.1,0.1,0.1,0.1s0.1,0.1,0.1,0.2C51.2,31.6,51.2,31.6,51.1,31.7z"/>
	</g>
</g>
<g>
	<g>
		<path class="st0" d="M51,31.6c0,0-0.1-0.1-0.1-0.1c0,0,0,0,0,0c0,0,0.1,0,0.1,0c0,0,0-0.1,0-0.1c0,0,0-0.1,0-0.1c0,0,0,0-0.1,0
			s-0.1,0-0.1,0h-0.2v0.5h0.1v-0.2h0c0,0,0.1,0,0.1,0C50.8,31.6,50.8,31.6,51,31.6L51,31.6L51,31.6L51,31.6z M50.8,31.5L50.8,31.5
			l-0.1-0.2h0.1c0,0,0.1,0,0.1,0c0,0,0,0,0,0c0,0,0,0,0,0C50.9,31.4,50.9,31.4,50.8,31.5C50.9,31.5,50.8,31.5,50.8,31.5z"/>
	</g>
</g>
<g>
	<g>
		<path class="st0" d="M45.3,25.9c-0.7,0-1.2,0.9-1.2,0.9l0.1-0.9h-1.4l-1,6h1.6c0.5-2.6,0.5-4.6,1.6-4.2c0.2-1,0.4-1.4,0.6-1.8
			C45.6,25.9,45.5,25.9,45.3,25.9z"/>
	</g>
</g>
<g>
	<g>
		<path class="st0" d="M49.3,24.6L49,26.7c0,0-0.6-0.8-1.5-0.8c-1.4,0-2.6,1.7-2.6,3.7c0,1.3,0.6,2.5,1.9,2.5c0.9,0,1.4-0.6,1.4-0.6
			l-0.1,0.6h1.5l1.2-7.3L49.3,24.6z M47.3,30.5c-0.6,0-0.8-0.5-0.8-1.2c0-1.2,0.5-2,1.2-2c0.6,0,0.8,0.4,0.8,1.3
			C48.6,29.4,48.2,30.5,47.3,30.5z"/>
	</g>
</g>
<g>
	<g>
		<path class="st0" d="M55,9.9H1.5C0.6,9.9,0,10.6,0,11.4v33.7c0,0.8,0.6,1.5,1.5,1.5H55c0.8,0,1.5-0.7,1.5-1.5V11.4
			C56.5,10.6,55.8,9.9,55,9.9z M51.4,36.5c0,0.1-0.1,0.1-0.2,0.2s-0.2,0.1-0.2,0.1c-0.1,0-0.2,0-0.2-0.1c-0.1,0-0.1-0.1-0.2-0.2
			c0-0.1-0.1-0.2-0.1-0.2s0-0.2,0.1-0.2c0-0.1,0.1-0.1,0.2-0.2c0.1,0,0.2-0.1,0.2-0.1c0.1,0,0.2,0,0.2,0.1c0.1,0,0.1,0.1,0.2,0.2
			c0,0.1,0.1,0.2,0.1,0.2S51.5,36.4,51.4,36.5z M52.5,28.2c0,8-6.5,14.5-14.5,14.5c-3.7,0-7.2-1.4-9.7-3.7c-2.6,2.3-6,3.7-9.7,3.7
			c-8,0-14.5-6.5-14.5-14.5c0-8,6.4-14.4,14.4-14.5c0,0,0.1,0,0.1,0c3.7,0,7.1,1.4,9.7,3.7c2.6-2.3,6-3.7,9.7-3.7
			C46,13.7,52.5,20.2,52.5,28.2C52.5,28.2,52.5,28.2,52.5,28.2z"/>
	</g>
</g>
<g>
	<g>
		<path class="st0" d="M26.8,37.4c0.5,0.6,0.9,1.1,1.5,1.6c0,0,0,0,0,0c0,0,0,0,0,0h0c0.5-0.5,1-1,1.5-1.6H26.8z"/>
	</g>
</g>
<g>
	<g>
		<path class="st0" d="M28.7,29.4c0,0,0.2-1,0.2-1.4c0-1-0.5-2.3-2.2-2.3c-1.6,0-2.7,1.7-2.7,3.6c0,2.2,1.4,2.7,2.7,2.7
			c1.1,0,1.6-0.3,1.6-0.3l0.3-1.5c0,0-0.9,0.4-1.6,0.4c-1.7,0-1.4-1.2-1.4-1.2S28.7,29.4,28.7,29.4z M26.7,27.2c0.9,0,0.7,1,0.7,1.1
			h-1.7C25.7,28.1,25.9,27.2,26.7,27.2z"/>
	</g>
</g>
<g>
	<g>
		<path class="st0" d="M36,26c0.8,0,1.4,0.4,1.4,0.4l0.3-1.6c0,0-0.9-0.4-1.7-0.4c-1.8,0-3.5,1.5-3.5,4.4c0,1.9,0.9,3.2,2.8,3.2
			c0.5,0,1.3-0.2,1.3-0.2l0.3-1.7c0,0-0.8,0.4-1.3,0.4c-1.1,0-1.5-0.8-1.5-1.7C34,27,34.9,26,36,26z"/>
	</g>
</g>
<g>
	<g>
		<path class="st0" d="M24.8,34.4c0.3,0.5,0.5,1.1,0.9,1.6h5.1c0.3-0.5,0.6-1,0.8-1.6H24.8z"/>
	</g>
</g>
<g>
	<g>
		<path class="st0" d="M32.4,25.9c-0.7,0-1.2,0.9-1.2,0.9l0.1-0.9h-1.4l-1,6h1.6c0.4-2.6,0.5-4.6,1.6-4.2c0.2-1,0.4-1.4,0.6-1.8
			C32.7,25.9,32.6,25.9,32.4,25.9z"/>
	</g>
</g>
</svg>
