<?xml version="1.0" encoding="utf-8"?>
<!-- Generator: Adobe Illustrator 23.0.1, SVG Export Plug-In . SVG Version: 6.00 Build 0)  -->
<svg version="1.1" id="Capa_1" xmlns="http://www.w3.org/2000/svg" xmlns:xlink="http://www.w3.org/1999/xlink" x="0px" y="0px"
	 viewBox="0 0 50.4 50.4" style="enable-background:new 0 0 50.4 50.4;" xml:space="preserve">
<style type="text/css">
	.st0{fill:#8C8D8E;}
</style>
<g>
	<g>
		<path class="st0" d="M9,20.6c-0.2-0.3-0.4-0.6-0.8-0.8c-0.3-0.2-0.7-0.4-1.2-0.4c-0.5-0.1-1-0.1-1.6-0.1l-2.9,0
			c-0.3,0-0.6,0.2-0.7,0.5L0,28.2c-0.1,0.3,0.1,0.5,0.4,0.5h1.4c0.3,0,0.6-0.2,0.7-0.5l0.5-2c0.1-0.3,0.4-0.5,0.7-0.5H4
			c1.7,0,3-0.3,3.9-1c0.9-0.7,1.4-1.6,1.4-2.7C9.3,21.3,9.2,20.9,9,20.6z M6.1,23.3c-0.4,0.3-1,0.5-1.7,0.5H4
			c-0.3,0-0.5-0.2-0.4-0.5L4,21.5C4.1,21.2,4.4,21,4.7,21l0.4,0c0.5,0,0.9,0.1,1.2,0.3c0.3,0.2,0.4,0.5,0.4,0.8
			C6.7,22.6,6.5,23,6.1,23.3z"/>
	</g>
</g>
<g>
	<g>
		<polygon class="st0" points="48.2,19.9 48.1,19.9 48,19.9 47.8,19.9 47.8,19.8 47.7,19.7 47.7,19.6 47.7,19 48.2,19 48.2,18.8 
			47.7,18.8 47.7,18.4 47.5,18.4 47.5,18.8 47.3,18.8 47.3,19 47.5,19 47.5,19.7 47.6,20 47.9,20.1 48,20.1 48.2,20.1 48.2,19.9 		
			"/>
	</g>
</g>
<g>
	<g>
		<polygon class="st0" points="50.3,18.9 50,18.7 49.7,18.8 49.5,18.9 49.3,18.8 49.1,18.7 48.9,18.8 48.7,18.9 48.7,18.8 
			48.5,18.8 48.5,20.1 48.7,20.1 48.7,19.1 48.9,19 49.1,18.9 49.2,19 49.3,19 49.3,19.2 49.3,19.3 49.3,20.1 49.5,20.1 49.5,19.2 
			49.5,19.2 49.5,19.1 49.7,19 49.9,18.9 50.1,19 50.1,19 50.2,19.2 50.2,19.3 50.2,20.1 50.4,20.1 50.4,19.2 		"/>
	</g>
</g>
<g>
	<g>
		<path class="st0" d="M15.7,21.8c-0.5-0.3-1.3-0.4-2.5-0.4c-0.6,0-1.1,0-1.7,0.1c-0.4,0.1-0.5,0.1-0.7,0.1
			c-0.5,0.1-0.6,0.6-0.6,0.6L10.1,23c-0.1,0.4,0.2,0.4,0.3,0.4c0.2-0.1,0.4-0.1,0.8-0.2c0.4-0.1,0.9-0.2,1.3-0.2
			c0.5,0,1,0.1,1.2,0.2c0.3,0.1,0.4,0.3,0.4,0.6l0,0.2L13.9,24c-0.8,0-1.3,0.1-2,0.2c-0.7,0.1-1.3,0.3-1.7,0.5
			c-0.5,0.2-0.9,0.5-1.2,0.9c-0.3,0.4-0.4,0.9-0.4,1.4c0,0.5,0.2,1,0.6,1.3c0.4,0.3,0.9,0.5,1.4,0.5c0.4,0,0.7,0,0.9-0.1l0.7-0.2
			l0.6-0.3l0.5-0.3l0,0l-0.1,0.2l0,0v0c-0.1,0.3,0.1,0.5,0.4,0.5l0,0h0h1.1h0.2l0,0c0.3,0,0.5-0.3,0.6-0.5l1-4.3l0.1-0.4l0-0.3
			C16.4,22.6,16.2,22.1,15.7,21.8z M13.4,26.7L13.2,27l-0.5,0.3c-0.3,0.1-0.5,0.2-0.7,0.2c-0.3,0-0.6,0-0.8-0.1l-0.3-0.5
			c0-0.3,0.1-0.5,0.2-0.7l0.6-0.4c0.2-0.1,0.6-0.2,0.9-0.2c0.3,0,0.9-0.1,1-0.1l0.1,0.2C13.7,25.6,13.5,26.3,13.4,26.7z"/>
	</g>
</g>
<g>
	<g>
		<path class="st0" d="M40.6,21.8c-0.5-0.3-1.3-0.4-2.5-0.4c-0.6,0-1.1,0-1.7,0.1c-0.4,0.1-0.5,0.1-0.7,0.1
			c-0.5,0.1-0.6,0.6-0.6,0.6L35,23c-0.1,0.4,0.2,0.4,0.3,0.4c0.2-0.1,0.4-0.1,0.8-0.2c0.4-0.1,0.9-0.2,1.3-0.2c0.5,0,1,0.1,1.2,0.2
			c0.3,0.1,0.4,0.3,0.4,0.6l0,0.2L38.8,24c-0.8,0-1.4,0.1-2,0.2c-0.7,0.1-1.3,0.3-1.7,0.5c-0.5,0.2-0.9,0.5-1.2,0.9
			c-0.3,0.4-0.4,0.9-0.4,1.4c0,0.5,0.2,1,0.6,1.3c0.4,0.3,0.9,0.5,1.4,0.5c0.4,0,0.7,0,0.9-0.1l0.7-0.2l0.6-0.3l0.5-0.3l0,0l0,0.2
			l0,0l0,0c-0.1,0.3,0.1,0.5,0.4,0.5l0,0h0c0.2,0,0.8,0,1.1,0h0.2l0,0c0.3,0,0.5-0.3,0.6-0.5l1-4.3l0.1-0.4l0-0.3
			C41.4,22.6,41.1,22.1,40.6,21.8z M38.4,26.7L38.2,27l-0.5,0.3c-0.3,0.1-0.5,0.2-0.7,0.2c-0.3,0-0.6,0-0.8-0.1l-0.3-0.5
			c0-0.3,0.1-0.5,0.2-0.7c0.1-0.2,0.3-0.3,0.6-0.4c0.2-0.1,0.5-0.2,0.9-0.2c0.3,0,0.9-0.1,1-0.1l0.1,0.2
			C38.6,25.6,38.5,26.3,38.4,26.7z"/>
	</g>
</g>
<g>
	<g>
		<path class="st0" d="M34,20.6c-0.2-0.3-0.4-0.6-0.8-0.8c-0.3-0.2-0.7-0.4-1.2-0.4c-0.5-0.1-1-0.1-1.6-0.1l-2.9,0
			c-0.3,0-0.6,0.2-0.7,0.5l-1.9,8.4c-0.1,0.3,0.1,0.5,0.4,0.5l1.4,0c0.3,0,0.6-0.2,0.7-0.5l0.5-2c0.1-0.3,0.4-0.5,0.7-0.5h0.4
			c1.7,0,3-0.3,3.9-1c0.9-0.7,1.4-1.6,1.4-2.7C34.2,21.4,34.1,21,34,20.6z M31,23.4c-0.4,0.3-1,0.5-1.7,0.5h-0.3
			c-0.3,0-0.5-0.2-0.4-0.5l0.4-1.8c0.1-0.3,0.4-0.5,0.7-0.5l0.4,0c0.5,0,0.9,0.1,1.2,0.3c0.3,0.2,0.4,0.5,0.4,0.8
			C31.6,22.6,31.4,23.1,31,23.4z"/>
	</g>
</g>
<g>
	<g>
		<path class="st0" d="M45.7,19.8c0.1-0.3-0.1-0.5-0.4-0.5h-1.2c-0.3,0-0.5,0.2-0.6,0.4l-0.1,0.1l-0.1,0.3l-1.7,7.8l-0.1,0.2l0,0
			c-0.1,0.3,0.1,0.5,0.3,0.5l0,0h1.3c0.2,0,0.5-0.2,0.6-0.4l0.1-0.1L45.7,19.8L45.7,19.8z"/>
	</g>
</g>
<g>
	<g>
		<path class="st0" d="M25,21.5c-0.3,0-1.6,0-1.6,0c-0.3,0-0.7,0.2-0.9,0.5c0,0-2,3.4-2.2,3.7l-0.2,0L19.5,22
			c-0.1-0.3-0.4-0.5-0.7-0.5l-1.2,0c-0.3,0-0.5,0.2-0.4,0.5c0,0,0.9,5.3,1.1,6.6c0.1,0.7,0,0.8,0,0.8L17,31.5
			c-0.2,0.3-0.1,0.5,0.2,0.5l1.4,0c0.3,0,0.7-0.2,0.9-0.5l5.5-9.3C24.9,22.3,25.5,21.5,25,21.5z"/>
	</g>
</g>
</svg>
