
<svg id="SvgjsSvg1001" width="288" height="288" xmlns="http://www.w3.org/2000/svg" version="1.1" xmlns:xlink="http://www.w3.org/1999/xlink" xmlns:svgjs="http://svgjs.com/svgjs"><defs id="SvgjsDefs1002"></defs><g id="SvgjsG1008" transform="matrix(1,0,0,1,0,0)"><svg xmlns="http://www.w3.org/2000/svg" viewBox="0 0 149.11 126.23" width="288" height="288"><g transform="translate(-1.7 -1.53)" fill="#ffffff" class="color000 svgShape"><path d="m88.79 33.6a9.61 9.61 0 1 0 -9.61-9.6 9.62 9.62 0 0 0 9.61 9.6zm0-18.21a8.61 8.61 0 1 1 -8.61 8.61 8.61 8.61 0 0 1 8.61-8.61z" fill="#ffffff" class="color000 svgShape"></path><path d="M88.79 32.6a8.61 8.61 0 10-8.61-8.6 8.61 8.61 0 008.61 8.6zm0-16.21a7.61 7.61 0 11-7.61 7.61 7.62 7.62 0 017.61-7.61zM111.36 50.87a7.54 7.54 0 00-4.88 1.77 9.49 9.49 0 00-.72.7 9.34 9.34 0 00-.63.78 7.6 7.6 0 0010.37 10.72 8 8 0 00.8-.61 7.93 7.93 0 00.72-.7 7.59 7.59 0 00-5.66-12.66zm4.27 11.22a6 6 0 01-.72.71 6.19 6.19 0 01-.84.57 5.6 5.6 0 01-8.31-4.9 5.5 5.5 0 01.8-2.87 4.43 4.43 0 01.6-.82 5.21 5.21 0 01.72-.69 5.52 5.52 0 013.48-1.22 5.6 5.6 0 014.27 9.22z" fill="#ffffff" class="color000 svgShape"></path><path d="m147.46 73.21h-6.46v-28.08a4.13 4.13 0 0 0 -4.14-4.13h-14.45v-34.39a5.09 5.09 0 0 0 -5.08-5.08h-110.56a5.08 5.08 0 0 0 -5.07 5.08v83.39a5.07 5.07 0 0 0 5.07 5.07h41.16v14a4.13 4.13 0 0 0 4.13 4.13h28.59v11.19a3.35 3.35 0 0 0 3.35 3.38h63.47a3.35 3.35 0 0 0 3.34-3.35v-47.87a3.35 3.35 0 0 0 -3.35-3.34zm-10.6-30.21a2.13 2.13 0 0 1 2.14 2.13v28.08h-47.57l-6.35-7.54a6.32 6.32 0 0 0 -2.32-2.18 7.58 7.58 0 0 0 -2.54-.88 8.05 8.05 0 0 0 -2.73.06 7.18 7.18 0 0 0 -2.57 1 6.7 6.7 0 0 0 -.81.59l-.71.6-17.17 14.38-6.3 5.28v-39.39a2.12 2.12 0 0 1 2.13-2.13zm-133.16 47v-28.77l.1-.09 33.2-27.79a7.6 7.6 0 0 1 6.18-1.67 6.62 6.62 0 0 1 4.77 3l5.3 6.32h-1.19a4.13 4.13 0 0 0 -4.13 4.12v47.96h-41.16a3.08 3.08 0 0 1 -3.07-3.08zm0-83.4a3.08 3.08 0 0 1 3.07-3.07h110.56a3.08 3.08 0 0 1 3.08 3.08v34.39h-64.56l-6.27-7.45a8.62 8.62 0 0 0 -6.14-3.86 9.58 9.58 0 0 0 -7.78 2.13l-31.96 26.8zm77.7 67.86a3.36 3.36 0 0 0 -.75 2.09v34.68h-28.59a2.13 2.13 0 0 1 -2.13-2.13v-22l.1-.08 8.41-7 16.2-13.57.73-.62a4.36 4.36 0 0 1 .83-.57 5.76 5.76 0 0 1 3.68-.63 4.84 4.84 0 0 1 3.5 2.18l5.42 6.44h-4.8a3.53 3.53 0 0 0 -.92.14 3.27 3.27 0 0 0 -.95.43 3.31 3.31 0 0 0 -.73.64zm52.76 51.31h-50.16a1.35 1.35 0 0 1 -1.34-1.35v-16.32l.1-.08 8.17-6.85 7.26-6.09 1.19-1 1.2-1 1-.87a3.87 3.87 0 0 1 2.47-.89 4.53 4.53 0 0 1 .73 0 3.68 3.68 0 0 1 .76.19 3.16 3.16 0 0 1 1.68 1.32l.18.21.84 1 .84 1 13.58 16.15.61.72.23.28.85 1 10.54 12.54zm14.64-1.35a1.35 1.35 0 0 1 -1.34 1.35h-9.93l-10.53-12.54-.84-1-.84-1-2.32-2.75-.07-.08 10.44-7.93a2.76 2.76 0 0 1 3.47.21l2.17 2.24 1 1 1 1 7.17 7.41.64.66zm0-14.23-7.8-8.08-1-1-1-1-.74-.75a4.72 4.72 0 0 0 -6.11-.41l-10.52 8-9.93-11.87-.84-1-.84-1-1.11-1.31a5.38 5.38 0 0 0 -3.8-2.39h-.11a6.7 6.7 0 0 0 -1.34 0 6.17 6.17 0 0 0 -1.14.19 5.41 5.41 0 0 0 -2.25 1.18l-1.51 1.25-.77.64-.54.45-.22.19-.11.09-.86.72-1.19 1-6.35 5.32-6.07 5.09v-28.95a1.38 1.38 0 0 1 .79-1.22 1.43 1.43 0 0 1 .55-.12h63.47a1.34 1.34 0 0 1 1.34 1.34z" fill="#ffffff" class="color000 svgShape"></path><path d="m131.3 84.4a6 6 0 0 0 -3.24-3.35 5.85 5.85 0 0 0 -1.82-.44h-.48a6 6 0 0 0 -3.35 1 5.9 5.9 0 0 0 -1.08 8.85 5.39 5.39 0 0 0 .87.78 5.86 5.86 0 0 0 6.55.34 5.93 5.93 0 0 0 2.92-5.1 2.64 2.64 0 0 0 0-.29 5.85 5.85 0 0 0 -.37-1.79zm-5.54 6.07a3.94 3.94 0 1 1 3.94-3.94 3.95 3.95 0 0 1 -3.94 3.94z" fill="#ffffff" class="color000 svgShape"></path></g></svg></g></svg>