
<svg height="288" width="288" xmlns="http://www.w3.org/2000/svg"><svg enable-background="new 0 0 87.7 135" fill="#fff" height="288" viewBox="0 0 87.7 135" width="288" xmlns="http://www.w3.org/2000/svg"><path d="m70.1 3.7h-53.1c-7.6 0-13.8 6.1-13.8 13.8v100.6c0 7.6 6.2 13.8 13.8 13.8h53.1c7.6 0 13.8-6.2 13.8-13.8v-100.6c0-7.7-6.2-13.8-13.8-13.8zm-53.1 2h53.1c6 0 11.1 4.5 11.7 10.5h-76.5c.7-6 5.7-10.5 11.7-10.5zm-11.8 111v-98.5h76.7v98.6h-76.7zm64.9 13.2h-53.1c-6.3 0-11.4-4.9-11.8-11.2h76.7c-.3 6.3-5.5 11.2-11.8 11.2z"/><path d="m44.8 12.2h12.1c.6 0 1-.4 1-1s-.4-1-1-1h-12.1c-.6 0-1 .4-1 1s.4 1 1 1zm-10.3 0h4.2c.6 0 1-.4 1-1s-.4-1-1-1h-4.2c-.6 0-1 .4-1 1s.4 1 1 1zm15.9 110.7h-12.2c-.6 0-1 .4-1 1s.4 1 1 1h12.1c.6 0 1-.4 1-1s-.4-1-.9-1z"/></svg></svg>