
<svg height="288" width="288" xmlns="http://www.w3.org/2000/svg"><svg enable-background="new 0 0 87.7 132.3" fill="#fff" height="288" viewBox="0 0 87.7 132.3" width="288" xmlns="http://www.w3.org/2000/svg"><path d="m83.5 76.9h-79.3c-1.5 0-2.8 1.3-2.8 2.8v48.7c0 1.5 1.3 2.8 2.8 2.8h79.2c1.5 0 2.8-1.3 2.8-2.8v-48.7c0-1.5-1.2-2.8-2.7-2.8zm-55 10c2.2-2.6 5.7-3.9 10.6-3.9 4.8.1 8.4 1.4 10.6 3.9 1.9 2.3 2.4 5.1 2.4 6.9-.2-.3-.6-.5-1-.5-.1 0-9.4 1-19.3-5.1-.3-.2-.6-.2-.9-.1s-.5.4-.6.7c0 0-.9 4.7-3.4 4.9-.3 0-.6.2-.8.5 0-1.6.3-4.8 2.4-7.3zm23.2 32.9c-2.1-1.9-4.3-2.8-5.7-3.3-.4-.2-.8-.3-1-.4-1-.6-1.1-2-1.1-2.7 1-.5 2-1.1 3-2.1 3.2-3.2 4.5-8.6 4-15.9h.5c.3 0 .5-.2.7-.4 0 .4-.1.7-.1.7-.1.4-1.6 10 2.2 15 2.7 3.6.1 7.7 0 8-.9 1.2-2.2 1.1-2.5 1.1zm-19.3-10.1c-4.3-4.8-3-14.6-3-14.7v-.1c1.3-1.1 2.1-2.9 2.5-4.2 7 4 13.5 4.7 16.9 4.8.5 6.8-.6 11.6-3.4 14.4-2.6 2.7-5.9 2.5-6 2.5h-.1-.1c-2.8 0-5.1-.9-6.8-2.7zm-6.2-14.1s0-.1 0-.2c.2.2.5.4.8.4h.1.3c-.2 2.9-.4 10.7 3.6 15.2 1 1.1 2.1 1.9 3.4 2.4 0 .7-.1 2-1.1 2.6-.2.1-.6.3-1 .4-1.5.5-3.7 1.4-5.8 3.3-.3 0-1.6.1-2.4-1.3-.1-.2-2.7-4.3 0-7.9 3.7-4.9 2.2-14.5 2.1-14.9zm6.7 22.7c.6-.2 1-.4 1.3-.6 1.5-.9 2-2.5 2.1-3.7 1 .2 2 .3 3.1.3h.3c.4 0 1.3 0 2.3-.3.1 1.2.5 2.8 2.1 3.7.3.2.8.4 1.3.6 2.6 1 7.4 2.8 9.1 10.9h-30.8c1.7-8.1 6.5-9.9 9.2-10.9zm51.3 10.1c0 .4-.4.8-.8.8h-27c-.7-3.4-1.8-5.8-3.1-7.7.8-.2 1.8-.8 2.5-2 .1-.2 3.5-5.5-.1-10.2-3.3-4.3-1.8-13.4-1.8-13.5 0-.2.9-5.9-2.8-10.3-2.6-3-6.6-4.6-12.1-4.7-5.5.1-9.5 1.6-12.1 4.7-3.7 4.3-2.8 10-2.8 10.3 0 .1 1.5 9.2-1.8 13.5-3.6 4.8-.2 10-.1 10.2.7 1.2 1.6 1.8 2.5 2-1.4 1.8-2.5 4.3-3.2 7.7h-17.3c-.4 0-.8-.4-.8-.8v-48.7c0-.4.4-.8.8-.8h79.2c.4 0 .8.4.8.8zm-.7-111.4h-79.3c-1.5 0-2.8 1.3-2.8 2.8v48.7c0 1.5 1.3 2.8 2.8 2.8h79.2c1.5 0 2.8-1.3 2.8-2.8v-48.7c0-1.5-1.2-2.8-2.7-2.8zm-29.4 15.1c2.7 3.6.1 7.7 0 8-.8 1.4-2.2 1.2-2.4 1.2-2.1-1.9-4.3-2.8-5.7-3.3-.4-.2-.8-.3-1-.4-1-.6-1.1-2-1.1-2.7.9-.4 1.9-1 2.8-1.9 3-2.9 4.4-7.6 4.2-13.9h.8c-.2 3.3-.3 9.3 2.4 13zm-1.6 19.2c0-.6-.5-1-1-1-.6 0-1 .5-1 1l.7 17.9h-24.4l.5-17.9c0-.6-.4-1-1-1s-1 .4-1 1l-.5 18h-3.1c.8-14.1 1.7-17.2 1.7-17.3v-.1c1.5-9.1 6.7-11 9.5-12.1.6-.2 1-.4 1.3-.6 1.5-.9 2-2.5 2.1-3.7 1 .2 2 .3 3.1.3h.3c.4 0 1.3 0 2.3-.3.1 1.2.5 2.8 2.1 3.7.3.2.8.4 1.3.6 2.7 1 7.9 3 9.4 12 0 .1 1.1 12.7 1.1 17.5h-2.5zm-28.5-10.8c-.1-.2-2.7-4.3 0-7.9 3-4 2.7-10.8 2.4-13.6h.8c-.1 3.9.4 10.1 4 13.8.9.9 1.9 1.6 3.1 2.1 0 .7-.1 2-1.1 2.6-.2.1-.6.3-1 .4-1.6.6-4.1 1.5-6.3 3.9-.4 0-1.2-.2-1.9-1.3zm21.4-9c-2.6 2.6-5.7 2.4-5.9 2.4h-.1-.1c-2.8.1-5.1-.7-6.7-2.4-3.2-3.3-3.5-9.2-3.4-12.4h19.7c.2 5.7-1 9.9-3.5 12.4zm-41.9 37v-48.7c0-.4.4-.8.8-.8h20.2c.4 3.5.4 9.3-2 12.4-3.6 4.8-.2 10-.1 10.2.6 1.1 1.4 1.7 2.2 2-1.3 1.9-2.4 4.5-3 8-.2.6-1 4.3-1.8 17.8h-15.6c-.4-.1-.7-.4-.7-.9zm80.7 0c0 .4-.4.8-.8.8h-25.7c0-4.9-1-17.1-1.1-17.7-.6-3.8-1.9-6.5-3.3-8.5.8-.2 1.8-.8 2.5-2 .1-.2 3.5-5.5-.1-10.2-2.4-3.2-2.2-9.1-2-11.9h29.7c.4 0 .8.4.8.8z"/><path d="m78 94.9c-.5-.2-1.1 0-1.3.5l-6.6 14.2-4.9-6.5c-.3-.4-1-.5-1.4-.2s-.5 1-.2 1.4l5.9 7.9c.2.3.5.4.8.4h.1c.3 0 .7-.3.8-.6l7.3-15.8c.2-.5 0-1.1-.5-1.3zm-.8-57.6c-.4-.4-1-.4-1.4 0l-4.4 4.4-4.4-4.4c-.4-.4-1-.4-1.4 0s-.4 1 0 1.4l4.4 4.4-4.4 4.4c-.4.4-.4 1 0 1.4.2.2.5.3.7.3s.5-.1.7-.3l4.4-4.4 4.4 4.4c.2.2.5.3.7.3s.5-.1.7-.3c.4-.4.4-1 0-1.4l-4.4-4.4 4.4-4.4c.4-.4.4-1 0-1.4zm-46.3-32.3c.2 0 .3 0 .5-.1 2.1-1.2 4.8-1.8 8-1.9 3.3.1 6 .7 8 1.9.2.1.3.1.5.1.3 0 .7-.2.9-.5.3-.5.1-1.1-.4-1.4-2.3-1.4-5.3-2.1-8.8-2.2 0 0 0 0-.1 0h-.1-.1s0 0-.1 0c-3.5.1-6.5.8-8.8 2.1-.5.3-.6.9-.4 1.4s.6.6.9.6zm-5.7 11.8h.1c.5-.1.9-.6.9-1.1 0 0 0-.4 0-1 0-.8.1-2 .4-3.4.1-.5-.2-1.1-.7-1.2s-1.1.2-1.2.7c-.4 1.6-.5 3-.5 3.9 0 .7.1 1.2.1 1.2 0 .5.4.9.9.9zm27.1-2.6c0 .9-.1 1.4-.1 1.4-.1.5.3 1.1.8 1.1h.2c.5 0 .9-.4 1-.8 0 0 .1-.7.1-1.7 0-1.1-.1-2.2-.3-3.2-.1-.5-.7-.9-1.2-.8s-.9.6-.8 1.2c.2.9.3 1.8.3 2.8zm-11.3-1.8c-.5-.2-1.1.1-1.3.6s.1 1.1.6 1.3c4.1 1.4 7.1 1.6 8.5 1.6h.8c.5-.1.9-.5.9-1.1-.1-.5-.5-1-1.1-.9 0 0-.2 0-.6 0-1 0-3.9-.2-7.8-1.5zm-13.6 3.4c.1 0 .1 0 0 0 3-.3 4.4-3.4 5-5.3.4 0 .7-.2.9-.5.3-.4.2-1-.3-1.3-.2-.1-.5-.3-.7-.4-.3-.2-.6-.2-.9-.1-.4.2-.6.4-.6.8 0 0-.9 4.7-3.4 4.9-.6 0-1 .5-.9 1.1 0 .4.4.8.9.8z"/></svg></svg>