
<svg height="288" width="288" xmlns="http://www.w3.org/2000/svg"><svg enable-background="new 0 0 150.5 129.3" fill="#fff" height="288" viewBox="0 0 150.5 129.3" width="288" xmlns="http://www.w3.org/2000/svg"><path d="m145.7 5.4-2-1.6c-2.7-2.2-6.4-2.3-8.2-.1l-50.3 61c-.6.7-1 1.6-1.1 2.5l-1.4 10.1c-.1.6.2 1.1.6 1.4.3.3.7.4 1.1.4.2 0 .3 0 .5-.1l9.8-3.4c.8-.3 1.5-.7 2-1.4l50.5-61.2c1.8-2.1 1.1-5.5-1.5-7.6zm-13.3 5.3 8.4 7.1-43.7 52.9-8.4-7.1zm-38.3 63.1-9.2 3.2 1.3-9.5c.1-.6.3-1.1.6-1.5l.6-.7 8.4 7.1-.6.6c-.3.4-.7.6-1.1.8zm51.7-62-3.7 4.5-8.4-7.1 3.5-4.2c1.1-1.3 3.5-1.1 5.4.4l2 1.6c1.6 1.3 2.2 3.5 1.2 4.8z"/><path d="m143.9 58.6c-.6 0-1 .4-1 1v61.8c0 2.1-2.4 3.8-5.2 3.8h-127.4c-2.7 0-4.9-1.6-4.9-3.6v-103.5c0-2.2 2.5-4 5.6-4h82c.6 0 1-.4 1-1s-.4-1-1-1h-82c-4.2 0-7.6 2.7-7.6 6v103.5c0 3.1 3.1 5.6 6.9 5.6h127.3c4 0 7.2-2.6 7.2-5.8v-61.8c.1-.6-.3-1-.9-1z"/></svg></svg>